<svg xmlns="http://www.w3.org/2000/svg" xmlns:xlink="http://www.w3.org/1999/xlink" width="500" zoomAndPan="magnify" viewBox="0 0 375 374.999991" height="500" preserveAspectRatio="xMidYMid meet" version="1.0"><defs><g/></defs><rect x="-37.5" width="450" fill="#ffffff" y="-37.499999" height="449.999989" fill-opacity="1"/><rect x="-37.5" width="450" fill="#e4e2dd" y="-37.499999" height="449.999989" fill-opacity="1"/><g fill="#000000" fill-opacity="1"><g transform="translate(98.657287, 203.934059)"><g><path d="M 33.296875 -9.484375 C 32.765625 -11.078125 32.050781 -12.628906 31.15625 -14.140625 C 30.257812 -15.660156 29.207031 -17.023438 28 -18.234375 C 26.800781 -19.441406 25.453125 -20.441406 23.953125 -21.234375 C 22.460938 -22.035156 20.820312 -22.53125 19.03125 -22.71875 C 18.351562 -22.769531 17.648438 -22.757812 16.921875 -22.6875 C 16.203125 -22.613281 15.503906 -22.457031 14.828125 -22.21875 C 14.160156 -21.976562 13.546875 -21.640625 12.984375 -21.203125 C 12.429688 -20.765625 12.035156 -20.1875 11.796875 -19.46875 L 8.25 -8.90625 C 7.28125 -6.15625 6.804688 -4.09375 6.828125 -2.71875 C 6.859375 -1.34375 7.359375 -0.65625 8.328125 -0.65625 L 8.328125 0 L 2.171875 0 L 2.171875 -0.65625 C 2.460938 -0.65625 2.800781 -0.785156 3.1875 -1.046875 C 3.570312 -1.316406 3.992188 -1.773438 4.453125 -2.421875 C 4.910156 -3.078125 5.40625 -3.945312 5.9375 -5.03125 C 6.46875 -6.113281 7.019531 -7.476562 7.59375 -9.125 L 20.484375 -46.828125 L 19.109375 -50.8125 L 24.609375 -50.8125 L 38.4375 -10.5 C 38.914062 -9.144531 39.382812 -7.863281 39.84375 -6.65625 C 40.300781 -5.445312 40.734375 -4.394531 41.140625 -3.5 C 41.554688 -2.613281 41.929688 -1.914062 42.265625 -1.40625 C 42.609375 -0.90625 42.921875 -0.65625 43.203125 -0.65625 L 43.203125 0 L 34.734375 0 L 34.734375 -0.65625 C 34.984375 -0.65625 35.070312 -1.328125 35 -2.671875 C 34.925781 -4.023438 34.550781 -5.71875 33.875 -7.75 Z M 12.59375 -21.640625 C 13.414062 -22.410156 14.425781 -22.90625 15.625 -23.125 C 16.832031 -23.34375 17.96875 -23.40625 19.03125 -23.3125 C 21.78125 -23.0625 24.191406 -22.140625 26.265625 -20.546875 C 28.347656 -18.960938 30.085938 -17.0625 31.484375 -14.84375 L 20.84375 -45.8125 Z M 12.59375 -21.640625 "/></g></g></g><g fill="#000000" fill-opacity="1"><g transform="translate(142.798525, 203.934059)"><g><path d="M 2.171875 0 L 2.171875 -0.65625 C 2.265625 -0.65625 2.40625 -0.722656 2.59375 -0.859375 C 2.789062 -1.003906 2.972656 -1.269531 3.140625 -1.65625 C 3.316406 -2.050781 3.472656 -2.617188 3.609375 -3.359375 C 3.753906 -4.109375 3.828125 -5.0625 3.828125 -6.21875 L 3.828125 -44.578125 C 3.828125 -45.785156 3.753906 -46.75 3.609375 -47.46875 C 3.472656 -48.195312 3.316406 -48.753906 3.140625 -49.140625 C 2.972656 -49.523438 2.789062 -49.789062 2.59375 -49.9375 C 2.40625 -50.082031 2.265625 -50.15625 2.171875 -50.15625 L 2.171875 -50.8125 L 2.828125 -50.8125 C 4.992188 -50.851562 7.242188 -50.992188 9.578125 -51.234375 C 11.921875 -51.484375 14.132812 -51.609375 16.21875 -51.609375 C 19.882812 -51.609375 22.96875 -51.304688 25.46875 -50.703125 C 27.976562 -50.097656 30.003906 -49.265625 31.546875 -48.203125 C 33.097656 -47.140625 34.207031 -45.867188 34.875 -44.390625 C 35.550781 -42.921875 35.890625 -41.320312 35.890625 -39.59375 C 35.890625 -38.09375 35.648438 -36.703125 35.171875 -35.421875 C 34.691406 -34.148438 33.90625 -33.003906 32.8125 -31.984375 C 31.726562 -30.972656 30.304688 -30.117188 28.546875 -29.421875 C 26.785156 -28.722656 24.628906 -28.226562 22.078125 -27.9375 C 24.628906 -27.644531 27.015625 -27.148438 29.234375 -26.453125 C 31.453125 -25.753906 33.367188 -24.820312 34.984375 -23.65625 C 36.609375 -22.5 37.890625 -21.125 38.828125 -19.53125 C 39.765625 -17.945312 40.234375 -16.117188 40.234375 -14.046875 C 40.234375 -11.191406 39.582031 -8.859375 38.28125 -7.046875 C 36.976562 -5.242188 35.226562 -3.820312 33.03125 -2.78125 C 30.84375 -1.75 28.300781 -1.023438 25.40625 -0.609375 C 22.507812 -0.203125 19.445312 0 16.21875 0 Z M 35.109375 -14.046875 C 35.109375 -16.210938 34.695312 -18.054688 33.875 -19.578125 C 33.050781 -21.097656 32.023438 -22.351562 30.796875 -23.34375 C 29.566406 -24.332031 28.191406 -25.113281 26.671875 -25.6875 C 25.148438 -26.269531 23.703125 -26.707031 22.328125 -27 C 20.953125 -27.289062 19.734375 -27.46875 18.671875 -27.53125 C 17.609375 -27.601562 16.882812 -27.640625 16.5 -27.640625 L 8.96875 -27.640625 L 8.96875 -0.65625 L 16.21875 -0.65625 C 19.738281 -0.695312 22.875 -1.175781 25.625 -2.09375 C 26.78125 -2.476562 27.925781 -2.992188 29.0625 -3.640625 C 30.195312 -4.296875 31.207031 -5.09375 32.09375 -6.03125 C 32.988281 -6.976562 33.710938 -8.113281 34.265625 -9.4375 C 34.828125 -10.769531 35.109375 -12.304688 35.109375 -14.046875 Z M 16.21875 -28.296875 L 16.21875 -28.21875 C 17.800781 -28.21875 19.445312 -28.382812 21.15625 -28.71875 C 22.875 -29.0625 24.445312 -29.664062 25.875 -30.53125 C 27.300781 -31.40625 28.484375 -32.578125 29.421875 -34.046875 C 30.359375 -35.523438 30.828125 -37.375 30.828125 -39.59375 C 30.828125 -41.8125 30.359375 -43.65625 29.421875 -45.125 C 28.484375 -46.59375 27.300781 -47.757812 25.875 -48.625 C 24.445312 -49.5 22.875 -50.117188 21.15625 -50.484375 C 19.445312 -50.847656 17.800781 -51.03125 16.21875 -51.03125 C 15.101562 -51.03125 13.929688 -50.976562 12.703125 -50.875 C 11.472656 -50.78125 10.226562 -50.6875 8.96875 -50.59375 L 8.96875 -28.296875 Z M 16.21875 -28.296875 "/></g></g></g><g fill="#000000" fill-opacity="1"><g transform="translate(183.97286, 203.934059)"><g/></g></g><g fill="#000000" fill-opacity="1"><g transform="translate(198.87935, 203.934059)"><g><path d="M 33.296875 -9.484375 C 32.765625 -11.078125 32.050781 -12.628906 31.15625 -14.140625 C 30.257812 -15.660156 29.207031 -17.023438 28 -18.234375 C 26.800781 -19.441406 25.453125 -20.441406 23.953125 -21.234375 C 22.460938 -22.035156 20.820312 -22.53125 19.03125 -22.71875 C 18.351562 -22.769531 17.648438 -22.757812 16.921875 -22.6875 C 16.203125 -22.613281 15.503906 -22.457031 14.828125 -22.21875 C 14.160156 -21.976562 13.546875 -21.640625 12.984375 -21.203125 C 12.429688 -20.765625 12.035156 -20.1875 11.796875 -19.46875 L 8.25 -8.90625 C 7.28125 -6.15625 6.804688 -4.09375 6.828125 -2.71875 C 6.859375 -1.34375 7.359375 -0.65625 8.328125 -0.65625 L 8.328125 0 L 2.171875 0 L 2.171875 -0.65625 C 2.460938 -0.65625 2.800781 -0.785156 3.1875 -1.046875 C 3.570312 -1.316406 3.992188 -1.773438 4.453125 -2.421875 C 4.910156 -3.078125 5.40625 -3.945312 5.9375 -5.03125 C 6.46875 -6.113281 7.019531 -7.476562 7.59375 -9.125 L 20.484375 -46.828125 L 19.109375 -50.8125 L 24.609375 -50.8125 L 38.4375 -10.5 C 38.914062 -9.144531 39.382812 -7.863281 39.84375 -6.65625 C 40.300781 -5.445312 40.734375 -4.394531 41.140625 -3.5 C 41.554688 -2.613281 41.929688 -1.914062 42.265625 -1.40625 C 42.609375 -0.90625 42.921875 -0.65625 43.203125 -0.65625 L 43.203125 0 L 34.734375 0 L 34.734375 -0.65625 C 34.984375 -0.65625 35.070312 -1.328125 35 -2.671875 C 34.925781 -4.023438 34.550781 -5.71875 33.875 -7.75 Z M 12.59375 -21.640625 C 13.414062 -22.410156 14.425781 -22.90625 15.625 -23.125 C 16.832031 -23.34375 17.96875 -23.40625 19.03125 -23.3125 C 21.78125 -23.0625 24.191406 -22.140625 26.265625 -20.546875 C 28.347656 -18.960938 30.085938 -17.0625 31.484375 -14.84375 L 20.84375 -45.8125 Z M 12.59375 -21.640625 "/></g></g></g><g fill="#000000" fill-opacity="1"><g transform="translate(243.020582, 203.934059)"><g><path d="M 10.71875 -50.15625 C 10.570312 -50.15625 10.398438 -50.082031 10.203125 -49.9375 C 10.015625 -49.789062 9.832031 -49.523438 9.65625 -49.140625 C 9.488281 -48.753906 9.332031 -48.195312 9.1875 -47.46875 C 9.039062 -46.75 8.96875 -45.785156 8.96875 -44.578125 L 8.96875 -6.21875 C 8.96875 -5.0625 9.039062 -4.109375 9.1875 -3.359375 C 9.332031 -2.617188 9.488281 -2.050781 9.65625 -1.65625 C 9.832031 -1.269531 10.015625 -1.003906 10.203125 -0.859375 C 10.398438 -0.722656 10.570312 -0.65625 10.71875 -0.65625 L 10.71875 0 L 2.171875 0 L 2.171875 -0.65625 C 2.265625 -0.65625 2.40625 -0.722656 2.59375 -0.859375 C 2.789062 -1.003906 2.972656 -1.269531 3.140625 -1.65625 C 3.316406 -2.050781 3.472656 -2.617188 3.609375 -3.359375 C 3.753906 -4.109375 3.828125 -5.0625 3.828125 -6.21875 L 3.828125 -44.578125 C 3.828125 -45.785156 3.753906 -46.75 3.609375 -47.46875 C 3.472656 -48.195312 3.316406 -48.753906 3.140625 -49.140625 C 2.972656 -49.523438 2.789062 -49.789062 2.59375 -49.9375 C 2.40625 -50.082031 2.265625 -50.15625 2.171875 -50.15625 L 2.171875 -50.8125 L 10.71875 -50.8125 Z M 10.71875 -50.15625 "/></g></g></g><g fill="#000000" fill-opacity="1"><g transform="translate(254.670714, 203.934059)"><g><path d="M 2.171875 -50.8125 L 8.96875 -50.8125 L 8.96875 -43.140625 C 9.789062 -45.546875 11.273438 -47.445312 13.421875 -48.84375 C 15.566406 -50.25 18.015625 -51.097656 20.765625 -51.390625 C 23.515625 -51.679688 26.375 -51.378906 29.34375 -50.484375 C 32.3125 -49.585938 35.035156 -48.078125 37.515625 -45.953125 C 40.003906 -43.835938 42.046875 -41.078125 43.640625 -37.671875 C 45.234375 -34.265625 46.03125 -30.175781 46.03125 -25.40625 C 46.03125 -20.726562 45.269531 -16.722656 43.75 -13.390625 C 42.226562 -10.054688 40.113281 -7.335938 37.40625 -5.234375 C 34.707031 -3.140625 31.523438 -1.609375 27.859375 -0.640625 C 24.191406 0.316406 20.210938 0.796875 15.921875 0.796875 C 13.796875 0.796875 11.625 0.675781 9.40625 0.4375 C 7.1875 0.195312 4.992188 0.0507812 2.828125 0 L 2.171875 0 L 2.171875 -0.65625 C 2.265625 -0.65625 2.40625 -0.722656 2.59375 -0.859375 C 2.789062 -1.003906 2.972656 -1.269531 3.140625 -1.65625 C 3.316406 -2.050781 3.472656 -2.617188 3.609375 -3.359375 C 3.753906 -4.109375 3.828125 -5.0625 3.828125 -6.21875 L 3.828125 -44.578125 C 3.828125 -45.785156 3.753906 -46.75 3.609375 -47.46875 C 3.472656 -48.195312 3.316406 -48.753906 3.140625 -49.140625 C 2.972656 -49.523438 2.789062 -49.789062 2.59375 -49.9375 C 2.40625 -50.082031 2.265625 -50.15625 2.171875 -50.15625 Z M 40.96875 -25.40625 C 40.96875 -30.375 40.179688 -34.570312 38.609375 -38 C 37.046875 -41.425781 35.066406 -44.113281 32.671875 -46.0625 C 30.285156 -48.019531 27.71875 -49.285156 24.96875 -49.859375 C 22.21875 -50.441406 19.644531 -50.40625 17.25 -49.75 C 14.863281 -49.101562 12.882812 -47.875 11.3125 -46.0625 C 9.75 -44.257812 8.96875 -41.929688 8.96875 -39.078125 L 8.96875 -0.296875 C 10.175781 -0.191406 11.359375 -0.09375 12.515625 0 C 13.679688 0.09375 14.816406 0.140625 15.921875 0.140625 C 19.878906 0.140625 23.398438 -0.445312 26.484375 -1.625 C 29.578125 -2.8125 32.195312 -4.5 34.34375 -6.6875 C 36.488281 -8.882812 38.128906 -11.5625 39.265625 -14.71875 C 40.398438 -17.882812 40.96875 -21.445312 40.96875 -25.40625 Z M 40.96875 -25.40625 "/></g></g></g><g fill="#000000" fill-opacity="1"><g transform="translate(75.000505, 203.97386)"><g><path d="M 10.71875 -50.078125 C 10.613281 -50.078125 10.460938 -50.003906 10.265625 -49.859375 C 10.078125 -49.722656 9.882812 -49.457031 9.6875 -49.0625 C 9.5 -48.675781 9.34375 -48.117188 9.21875 -47.390625 C 9.101562 -46.671875 9.046875 -45.710938 9.046875 -44.515625 L 9.046875 -0.65625 L 17.21875 -0.65625 C 19.007812 -0.84375 20.640625 -1.101562 22.109375 -1.4375 C 23.578125 -1.78125 24.925781 -2.179688 26.15625 -2.640625 C 27.394531 -3.097656 28.554688 -3.613281 29.640625 -4.1875 C 30.722656 -4.769531 31.820312 -5.398438 32.9375 -6.078125 L 33.578125 -6.078125 L 33.578125 0.078125 L 27.359375 0.078125 L 25.46875 0 L 2.171875 0 L 2.171875 -0.65625 C 2.265625 -0.65625 2.40625 -0.710938 2.59375 -0.828125 C 2.789062 -0.953125 2.972656 -1.21875 3.140625 -1.625 C 3.316406 -2.039062 3.472656 -2.609375 3.609375 -3.328125 C 3.753906 -4.054688 3.828125 -5.019531 3.828125 -6.21875 L 3.828125 -44.515625 C 3.828125 -45.710938 3.753906 -46.671875 3.609375 -47.390625 C 3.472656 -48.117188 3.316406 -48.675781 3.140625 -49.0625 C 2.972656 -49.457031 2.789062 -49.722656 2.59375 -49.859375 C 2.40625 -50.003906 2.265625 -50.078125 2.171875 -50.078125 L 2.171875 -50.734375 L 10.71875 -50.734375 Z M 10.71875 -50.078125 "/></g></g></g></svg>